<svg width="25" height="24" viewBox="0 0 25 24" fill="none" xmlns="http://www.w3.org/2000/svg">
<path d="M16.3805 14H15.5905L15.3105 13.73C16.2905 12.59 16.8805 11.11 16.8805 9.5C16.8805 5.91 13.9705 3 10.3805 3C6.79049 3 3.88049 5.91 3.88049 9.5C3.88049 13.09 6.79049 16 10.3805 16C11.9905 16 13.4705 15.41 14.6105 14.43L14.8805 14.71V15.5L19.8805 20.49L21.3705 19L16.3805 14ZM10.3805 14C7.89049 14 5.88049 11.99 5.88049 9.5C5.88049 7.01 7.89049 5 10.3805 5C12.8705 5 14.8805 7.01 14.8805 9.5C14.8805 11.99 12.8705 14 10.3805 14Z" fill="white"/>
</svg>
